<svg xmlns="http://www.w3.org/2000/svg" viewBox="0 0 510 510"><defs><style>.cls-1{fill:none;}.cls-2{fill:#ff0083;}.cls-3{fill:#ff6ec7;}</style></defs><g id="Camada_2" data-name="Camada 2"><g id="Camada_1-2" data-name="Camada 1"><rect class="cls-1" width="510" height="510"/><path class="cls-2" d="M470.69,4,285.92,48.79a2.64,2.64,0,0,0-1.73,1.36l-71.84,141-24.62,48.3a2.53,2.53,0,0,1-2.26,1.44,2.59,2.59,0,0,1-2.34-2.61V75.8a2.62,2.62,0,0,0-2.75-2.62,2.57,2.57,0,0,0-.91,0L41,108.8a2.61,2.61,0,0,0-2,2.51l-5.33,390.9a2.62,2.62,0,0,0,2.68,2.67h.38l138.46.5c1,.24,2,.5,2.93.73,1.58.37,3.34,2,4.25-.34a1.76,1.76,0,0,0-.16-1.79,2.68,2.68,0,0,0,.32-1.2l.28-37.78.92-122a2.6,2.6,0,0,1,2.6-2.6,2.55,2.55,0,0,1,2,1.34l93.46,163a2.6,2.6,0,0,0,1,1,2.7,2.7,0,0,0,1.31.35h.25l.13,0h6.29c24.37.59,94.37.26,141.78,0H470.8a2.66,2.66,0,0,0,1-.22h5.3L424.21,391.71l-54.48-123a2.63,2.63,0,0,1-.05-2.11l18-44.28h0L475,8.53"/><path class="cls-3" d="M387.61,268.1l83.8,195.53,5.32-422.24L387.59,266.52A2,2,0,0,0,387.61,268.1Z"/></g></g></svg>